Coordinates
version=1
nRows=16
nColumns=36
inDegrees=yes

Units are S.I. units (second, meters, Newtons, ...)
If the header above contains a line with 'inDegrees', this indicates whether rotational values are in degrees (yes) or radians (no).

endheader
time	pelvis_tilt	pelvis_list	pelvis_rotation	pelvis_tx	pelvis_ty	pelvis_tz	hip_flexion_r	hip_adduction_r	hip_rotation_r	knee_angle_r	knee_angle_r_beta	ankle_angle_r	subtalar_angle_r	mtp_angle_r	hip_flexion_l	hip_adduction_l	hip_rotation_l	knee_angle_l	knee_angle_l_beta	ankle_angle_l	subtalar_angle_l	mtp_angle_l	lumbar_extension	lumbar_bending	lumbar_rotation	arm_flex_r	arm_add_r	arm_rot_r	elbow_flex_r	pro_sup_r	arm_flex_l	arm_add_l	arm_rot_l	elbow_flex_l	pro_sup_l
      6.86666670	    -30.22736181	     -6.67620016	      6.74306307	      1.55269391	      0.72139749	      0.09905081	     73.37521443	      7.93168374	     -7.02737133	     74.94928027	      1.30811171	     39.64924461	     -0.89683064	     -7.49999987	     96.01792701	    -12.48664665	     14.64355357	     45.48224985	      0.79381501	      0.73093521	    -14.92412336	     -7.49999987	     -4.15985170	     12.52583798	      7.91015590	     52.05172800	     -8.92176491	     74.91133185	    116.99164942	     97.31154812	     54.54626107	      2.89147559	     70.06402812	    107.36768017	    109.22229227
      6.88333330	    -30.54011704	     -6.93109789	      6.46729129	      1.55613855	      0.71668338	      0.09612031	     74.08281419	      8.07117455	     -7.45000583	     75.53667959	      1.31836376	     39.97431182	     -0.52182083	     -7.49999987	     96.82769594	    -12.63771002	     15.05007005	     45.65964120	      0.79691107	      0.83984537	    -14.82765108	     -7.49999987	     -4.23753500	     12.92476366	      8.43495543	     51.48920794	     -9.05231733	     75.29691941	    116.53712966	     97.41938174	     54.16528050	      2.96466623	     70.00368035	    106.75789525	    109.30585788
      6.90000000	    -30.59632068	     -6.99906021	      6.24851868	      1.55227105	      0.71367952	      0.09959512	     74.69600736	      8.09490966	     -7.82073367	     76.30050828	      1.33169509	     40.07968531	     -0.46475037	     -7.49999987	     97.37574802	    -12.74856296	     15.40721311	     45.86590933	      0.80051113	      0.72601386	    -14.77009521	     -7.49999987	     -4.51082558	     12.95106737	      8.99969550	     51.86337640	     -8.74677910	     75.00932406	    116.45272746	     97.43069359	     54.47207763	      2.79997646	     69.90263869	    106.84861575	    109.31231802
      6.91666670	    -30.96743853	     -7.32273815	      5.81844520	      1.55594490	      0.71121506	      0.09705609	     75.37784238	      8.35190950	     -8.30984565	     76.77096748	      1.33990615	     40.44832340	     -0.03326394	     -7.49999987	     98.30327997	    -13.01099239	     15.98940844	     46.14467979	      0.80537659	      0.86467042	    -14.75369635	     -7.49999987	     -4.19624293	     13.37796712	      9.42130152	     51.71213348	     -8.61169332	     74.67168236	    115.95240333	     97.49620424	     54.12253304	      2.67436376	     70.21191924	    106.84432464	    109.38411537
      6.93333330	    -31.43263720	     -7.47207176	      5.49632410	      1.55539598	      0.70993223	      0.09700388	     76.04699525	      8.44714265	     -8.53164602	     77.16723655	      1.34682235	     40.70826691	      0.10713924	     -7.49999987	     99.08992035	    -13.10426707	     16.37228725	     46.19132059	      0.80619063	      1.00346232	    -14.62219394	     -7.49999987	     -3.97288322	     13.58115680	      9.61734407	     51.72047016	     -8.89682817	     75.18657859	    116.18580169	     96.32413358	     53.87082810	      2.78242857	     70.26478875	    106.08076144	    107.59144435
      6.95000000	    -31.82482939	     -7.62679385	      5.15227534	      1.55542859	      0.70459289	      0.09749184	     76.81686007	      8.57240482	     -8.88164099	     77.70718780	      1.35624628	     41.01641910	      0.41163147	     -7.49999987	     99.91654799	    -13.21272647	     16.82299823	     46.44018238	      0.81053409	      1.12640757	    -14.46609142	     -7.49999987	     -3.87849419	     13.69811922	      9.82736389	     51.89922551	     -8.71140390	     75.45082832	    117.01296580	     95.87940851	     53.74517300	      2.83976701	     70.33192850	    106.41876610	    107.25295589
      6.96666670	    -32.40145474	     -7.77724071	      4.90415180	      1.55489860	      0.70346839	      0.09748551	     77.51136625	      8.64752076	     -9.08318378	     77.93021353	      1.36013881	     41.18487796	      0.39853171	     -7.49999987	    100.77171649	    -13.24450854	     17.17216047	     46.49132289	      0.81142666	      1.43610255	    -13.97706679	     -7.49999987	     -3.41249187	     13.85512008	      9.86957213	     51.70916849	     -8.98705352	     76.02258458	    117.22822337	     96.74746708	     53.10016349	      2.99766977	     69.63441736	    106.30859969	    109.92546010
      6.98333330	    -32.84864666	     -7.89846887	      4.69652164	      1.55481520	      0.69790460	      0.09788070	     78.25987984	      8.68892277	     -9.36787905	     78.43416386	      1.36893441	     41.52937387	      0.62903984	     -7.49999987	    101.60204353	    -13.25117340	     17.47719057	     46.69560228	      0.81499201	      1.77407497	    -13.70095507	     -7.49999987	     -2.97811865	     13.93899412	      9.88146278	     51.58317453	     -8.79751052	     75.74706694	    117.42499896	     96.39527804	     53.18177765	      3.03647200	     69.12858277	    107.09216831	    109.25071394
      7.00000000	    -33.08126982	     -7.95182681	      4.58496668	      1.55394405	      0.69935005	      0.09738157	     78.55952130	      8.67678085	     -9.57051611	     78.61977432	      1.37217392	     41.97752159	      0.93241938	     -7.49999987	    101.90921751	    -13.18160431	     17.64486585	     46.74650323	      0.81588040	      1.95563822	    -13.57056165	     -7.49999987	     -3.01964171	     14.08769040	      9.73264127	     51.40979300	     -9.20947948	     76.57256886	    118.13764001	     93.15093211	     53.14111890	      3.04683981	     69.02674390	    107.33587500	    106.17812421
      7.01666670	    -33.74741617	     -8.13818305	      4.27914480	      1.54624226	      0.69664681	      0.09904784	     79.54497862	      8.82165470	     -9.82859103	     78.74994436	      1.37444581	     41.85085220	      0.69819267	     -7.49999987	    102.78399300	    -13.19006625	     17.92829521	     46.75815851	      0.81608382	      1.70013835	    -13.42805213	     -7.49999987	     -2.54199513	     14.23327857	      9.81939682	     51.50943006	     -9.76331083	     76.84405944	    118.08774396	     93.71914383	     53.39923310	      3.51413771	     68.76913214	    106.64397425	    107.07907302
      7.03333330	    -34.08748227	     -8.25453092	      4.06267026	      1.54612351	      0.69362454	      0.09932533	     80.22252300	      8.95665722	    -10.03134620	     79.00376532	      1.37887583	     42.06086114	      0.88322032	     -7.49999987	    103.40378899	    -13.21745452	     18.06120110	     46.94952687	      0.81942383	      1.54135830	    -13.27441788	     -7.49999987	     -2.35882479	     14.24017299	     10.24136437	     51.47278058	    -10.24847457	     76.96094636	    118.21350158	     94.02076463	     53.63120749	      3.98692465	     68.61530658	    106.18220559	    108.50735298
      7.05000000	    -34.18855110	     -8.34166639	      3.91974472	      1.55080597	      0.69602429	      0.10090239	     80.35030779	      9.20040249	    -10.07594553	     78.92073339	      1.37742665	     42.16264031	      0.98414983	     -7.49999987	    103.50321180	    -13.26959379	     18.17810145	     46.86842862	      0.81800839	      1.47849833	    -13.23181529	     -7.49999987	     -2.43025191	     14.20011782	     10.39588101	     51.28186094	    -10.37570446	     77.34421372	    117.85900670	     94.21173659	     53.52197519	      4.02507610	     68.82503786	    106.18474282	    108.68072330
      7.06666670	    -34.13387163	     -8.35023385	      3.74052014	      1.55386126	      0.69442424	      0.09786496	     80.25714637	      9.42181454	    -10.03549004	     78.92595563	      1.37751779	     42.34446118	      0.98861710	     -7.49999987	    103.45618803	    -13.38930207	     18.18209311	     46.88432107	      0.81828577	      1.54548265	    -13.23549708	     -7.49999987	     -2.36051270	     14.22011148	     10.13023946	     50.90451376	    -10.50952186	     77.60008303	    117.80783874	     94.27507566	     53.51397748	      4.06137034	     68.83837786	    106.14804967	    108.72156742
      7.08333330	    -34.17215945	     -8.41711237	      3.62821843	      1.55397925	      0.69385967	      0.09805339	     80.29400323	      9.62542499	     -9.97046718	     78.95310232	      1.37799159	     42.42809602	      0.92059360	     -7.49999987	    103.59540300	    -13.42896738	     18.26675638	     46.95977146	      0.81960263	      1.86938737	    -12.98928736	     -7.49999987	     -2.14440305	     14.41343934	      9.96984811	     50.38298767	    -10.64070270	     77.37513417	    117.38029323	     94.99551848	     53.16638423	      4.13935019	     68.91253562	    106.16632244	    110.75981883
      7.10000000	    -34.15025275	     -8.33789549	      3.55750326	      1.55330924	      0.69561028	      0.09758837	     80.19716357	      9.73111471	     -9.75627702	     78.90450099	      1.37714334	     42.58915423	      1.02921566	     -7.49999987	    103.48695573	    -13.37411295	     18.30438962	     46.84786895	      0.81764956	      1.98004533	    -13.07517569	     -7.49999987	     -2.26687451	     14.34332160	      9.89675384	     50.25644251	    -10.76211120	     77.23419871	    117.06171123	     93.51963587	     53.04778248	      4.16082910	     68.97197307	    106.04233410	    109.18421367
      7.11666670	    -34.27734529	     -8.47001130	      3.57749517	      1.55415331	      0.69125558	      0.09847959	     80.47927888	      9.82476063	     -9.85747200	     79.08215378	      1.38024396	     42.64812848	      0.96895989	     -7.49999987	    103.81659682	    -13.23919604	     18.46696395	     46.98430859	      0.82003088	      2.06305555	    -13.00895574	     -7.49999987	     -1.75942508	     14.44478014	      9.74306942	     49.71675481	    -10.92264917	     77.35113353	    117.59881682	     93.10678518	     52.57263025	      4.21142745	     69.15060568	    106.80348905	    108.53729694
